<?xml version="1.0" encoding="utf-8"?>
<!-- Generator: Adobe Illustrator 22.1.0, SVG Export Plug-In . SVG Version: 6.00 Build 0)  -->
<svg version="1.1" id="Layer_1" xmlns="http://www.w3.org/2000/svg" xmlns:xlink="http://www.w3.org/1999/xlink" x="0px" y="0px"
	 viewBox="0 0 499.2 74.1" style="enable-background:new 0 0 499.2 74.1;" xml:space="preserve">
<g>
	<path d="M34.4,71.9c0,0.6-0.2,1-0.5,1.4c-0.3,0.3-0.7,0.6-1.2,0.6c-0.5,0.1-0.9,0.1-1.4,0.2s-0.9,0-1.2,0c-0.2,0.1-0.5,0.1-1,0
		c-0.5,0-0.9-0.1-1.4-0.2c-0.5-0.1-0.9-0.3-1.3-0.6c-0.4-0.4-0.6-0.9-0.6-1.5V48.4c-0.5,2.4-0.8,4.1-0.9,5.3l-1.3,6.5
		c-0.8,4.9-1.6,9-2.4,12.3c-0.5,0.8-1,1.3-1.5,1.5h-2.7c-2.5,0.2-3.9-0.4-4.3-1.7c-0.3-1.9-1.4-7.6-3.1-16.8c-0.6-3.4-1-5.7-1.3-7.1
		v23.4c0,0.6-0.2,1-0.5,1.4s-0.7,0.6-1.2,0.6C6.3,73.9,5.8,74,5.3,74c-0.5,0-0.9,0-1.2,0c-0.2,0.1-0.5,0.1-1,0
		c-0.5,0-0.9-0.1-1.4-0.2c-0.5-0.1-0.9-0.3-1.2-0.7S0,72.4,0,71.8V4.3c0-1.7,1.4-2.4,4.3-2.2c1.1,0,1.9,0.1,2.5,0.2
		c0.6,0.1,1.1,0.4,1.4,0.8C8.6,3.6,8.8,4,8.9,4.5C9,4.9,9.1,5.7,9.3,6.8c0.1,1.5,0.4,3.1,0.7,4.9c0.3,1.5,1.8,9.2,4.4,23.2
		c0.2,1.2,0.6,3.5,1.2,7c0.6,3.5,1.1,6.3,1.5,8.2l3.3-17.6c3.2-17.7,4.9-27,5.1-28c0.4-0.8,1-1.7,1.8-2.5h5.2c0.4,0,0.8,0.3,1.3,0.8
		c0.5,0.6,0.7,1,0.7,1.4V71.9z M17.3,51.7c0,0,0-0.1-0.1-0.2C17.2,51.6,17.2,51.7,17.3,51.7z"/>
	<path d="M65.1,71.6L65,72.1c-0.2,0.5-0.6,1.2-1.3,2h-5.3c-0.6,0-1.1-0.6-1.6-1.9c-0.4-1.2-0.7-2.4-0.7-3.4
		c-0.1-0.1-0.2-0.3-0.2-0.5c-0.1-0.2-0.1-0.3,0-0.3h-9.2c-0.3,0.5-0.5,1.2-0.6,2.3c-0.1,1.5-0.7,2.7-1.6,3.8h-5.2
		c-0.7,0-1.2-0.5-1.7-1.4v-0.2c-0.1-0.3-0.2-0.7-0.2-1c0-0.2,1.4-10,4.1-29.5c2.7-19.5,4.5-32.2,5.3-38c0.1-0.4,0.4-0.7,0.7-1
		c0.3-0.3,0.8-0.5,1.3-0.5c0.5-0.1,0.9-0.1,1.2-0.2c0.3,0,0.8,0,1.4,0h0.6c0.2,0,0.5,0,0.9,0.1c0.4,0,0.7,0.1,0.9,0.1
		c0.7,0.3,1.3,0.7,1.8,1.4c0.1,0.3,0.1,0.8,0.2,1.4c0.1,0.7,0.2,1.1,0.2,1.4c0.4,3.2,0.7,5.2,0.8,6.1C58.6,27.4,60.4,40,62,50.5
		c0.3,1.8,0.8,5.2,1.5,10.1C64.2,65.5,64.8,69.1,65.1,71.6z M55.1,60.4c0-0.5-0.5-4.3-1.4-11.5c-0.9-7.1-1.7-12.9-2.4-17.3
		c-0.1,0.9-1,7.7-2.7,20.2c-0.1,1-0.3,2.6-0.6,4.5c-0.2,2-0.4,3.5-0.6,4.5c0.1,0.1,0.1,0.2,0.3,0.4c0,0,0,0,0,0c0,0,0,0,0,0
		c3.4,0,5.7-0.1,7.1-0.2C55,60.8,55.1,60.6,55.1,60.4z"/>
	<path d="M90.8,71.9c0,0.3-0.1,0.7-0.2,0.9c-0.1,0.3-0.3,0.5-0.5,0.6c-0.2,0.2-0.5,0.3-0.7,0.4c-0.2,0.1-0.5,0.1-0.9,0.2
		c-0.3,0-0.6,0.1-0.8,0.1c-0.2,0-0.4,0-0.7,0c-0.3,0-0.4,0-0.4,0h-0.5c-0.7,0-1.2,0-1.5-0.1c-0.3,0-0.7-0.2-1.1-0.4
		c-0.4-0.2-0.7-0.7-1-1.2c-0.2-0.6-0.5-1.4-0.7-2.4c-0.9-5-2.7-13.2-5.3-24.6c-0.4-1.4-0.6-2.4-0.7-3v29.5c0,0.8-0.3,1.4-0.9,1.7
		c-0.6,0.3-1.2,0.5-1.9,0.5c-0.6,0-1.2-0.1-1.6,0c-0.2,0.1-0.5,0.1-1,0c-0.4,0-0.9-0.1-1.3-0.2c-0.5-0.1-0.9-0.3-1.2-0.7
		s-0.5-0.8-0.5-1.4V4.3c0-1.7,1.4-2.4,4.3-2.2h0.5c0.6,0,1.1,0,1.4,0.1c0.4,0.1,0.7,0.2,1.2,0.5c0.4,0.2,0.7,0.6,1,1.2
		c0.3,0.5,0.5,1.2,0.7,2.1c0.9,4.8,2.7,12.8,5.2,24l0.7,3.1V4.3c0-1.7,1.5-2.4,4.5-2.2c0.1,0,0.3,0,0.6,0c0.2,0,0.5,0,0.8,0
		c0.3,0,0.6,0.1,0.9,0.2c0.3,0.1,0.6,0.2,0.8,0.4c0.2,0.1,0.4,0.4,0.6,0.6c0.2,0.3,0.2,0.6,0.2,1V71.9z"/>
	<path d="M120.3,58.9c0,1.3,0,2.5-0.1,3.6c-0.1,1.1-0.3,2.2-0.6,3.5c-0.3,1.3-0.7,2.3-1.3,3.3c-0.5,0.9-1.3,1.7-2.2,2.4
		c-1,0.7-2.1,1.2-3.4,1.5c-2.5,0.5-4,0.8-4.5,0.8c-0.2,0-1.1-0.1-2.6-0.3c-1.5-0.2-2.6-0.4-3.3-0.5c-1.5-0.3-3.1-1.4-4.6-3.3
		c-1.6-1.9-2.4-3.8-2.4-5.8c-0.1-0.1-0.1-0.1-0.1-0.3c-0.2-0.4-0.3-0.7-0.3-1.1V13c0-0.2,0.1-0.5,0.3-1L95,12.2
		c0.1-0.5,0.2-0.8,0.2-0.9c0.1-1.3,0.4-2.6,1-4c0.6-1.3,1.4-2.4,2.4-3.2c1.9-1.3,5.3-2,10.2-2c3.1,0,5.5,0.4,7,1.1
		c1.6,0.7,2.7,2.1,3.4,4c0.7,1.9,1.1,4.8,1.1,8.6c0,3.2-0.7,4.8-2,4.8h-5.4c-0.2-0.3-0.4-0.6-0.6-0.9c-0.2-0.3-0.3-0.5-0.4-0.6
		c-0.1-0.1-0.2-0.3-0.3-0.4c0.1-2-0.2-4-0.9-6.1c-0.7-2-1.6-3.1-2.9-3.1c-1.1,0-2,0.4-2.7,1.3c-0.7,0.9-1.2,1.9-1.5,3
		c-0.3,1.1-0.4,2.4-0.4,3.7v40.8c0,5.2,1.3,7.9,3.9,7.9c0.8,0,1.5-0.3,2.2-0.8c0.7-0.5,1.3-1.4,1.7-2.7v0.1c0.2-1.5,0.3-2.6,0.4-3.5
		c0.1-0.3,0.1-0.7,0.1-1.1c0.1-0.6,0.1-1.1,0.1-1.5c0-0.5,0.1-0.9,0.3-1.4c0.2-0.5,0.6-0.9,1-1.2c0.6-0.1,1.5-0.2,2.8-0.2
		c0.7,0,1.2,0,1.5,0c0.2,0,0.6,0,1,0.1c0.5,0.1,0.7,0.1,0.8,0.1s0.2,0.1,0.5,0.4c0.2,0.3,0.3,0.4,0.3,0.5s0,0.4,0.1,1
		c0.1,0.5,0.1,0.9,0.1,1.2S120.3,58,120.3,58.9z"/>
	<path d="M147.7,71.9c0,0.3-0.1,0.7-0.2,0.9c-0.1,0.3-0.3,0.5-0.5,0.6c-0.2,0.2-0.5,0.3-0.7,0.4c-0.2,0.1-0.5,0.1-0.9,0.2
		c-0.3,0-0.6,0.1-0.8,0.1c-0.2,0-0.5,0-0.7,0c-0.3,0-0.5,0-0.5,0c-0.2,0.1-0.5,0.1-1,0c-0.5-0.1-0.9-0.1-1.4-0.2
		c-0.5-0.1-0.9-0.3-1.3-0.6c-0.4-0.3-0.5-0.8-0.5-1.4V41.2c0-0.3-0.4-0.5-1.1-0.5c-0.7,0-1.4,0.1-1.9,0.2h-0.5
		c-1.8-0.2-2.7-0.1-2.7,0.3v30.7c0,0.8-0.3,1.4-0.9,1.7c-0.6,0.3-1.3,0.5-1.9,0.5c-0.7,0-1.2-0.1-1.5,0c-0.1,0.1-0.4,0.1-0.8,0
		c-0.4,0-0.9-0.1-1.4-0.2c-0.5-0.1-0.9-0.3-1.3-0.6c-0.4-0.4-0.6-0.9-0.6-1.5V4.5c0-1.5,1.4-2.3,4.3-2.3c0.2-0.1,0.5-0.1,1,0
		c0.5,0.1,0.9,0.1,1.4,0.2c0.5,0.1,0.9,0.3,1.3,0.7c0.4,0.4,0.6,0.8,0.6,1.4v28.2c0,0.3,0.5,0.5,1.4,0.5c0.9,0,1.5,0,1.7-0.1h0.6
		c1.8,0.2,2.7,0,2.7-0.5V4.5c0-0.6,0.2-1.1,0.5-1.4c0.4-0.4,0.8-0.6,1.3-0.7c0.5-0.1,1-0.1,1.4-0.2c0.5-0.1,0.8-0.1,1,0
		c0-0.1,0.3-0.1,0.7,0c0.4,0,0.9,0.1,1.4,0.2c0.5,0.1,1,0.3,1.4,0.7c0.4,0.4,0.7,0.9,0.7,1.5V71.9z"/>
	<path d="M173.5,70.6c0,2.3-0.6,3.4-1.9,3.4h-17.5c-0.3,0-0.7-0.3-1.3-0.9c-0.5-0.6-0.8-1-0.8-1.4V4.5c0-0.4,0.3-0.9,0.9-1.4
		c0.6-0.6,1.1-0.8,1.5-0.8h16.7c1.5,0,2.3,1.2,2.3,3.5c0,2.3-0.6,3.5-1.9,3.5h-10.7c-0.1,0-0.2,0.1-0.2,0.4v23.2
		c0,0.3,0.1,0.4,0.2,0.4h7.6c0.6,0,1,0.3,1.3,0.8c0.3,0.6,0.5,1.1,0.6,1.7l0,0.8c0,0.2,0,0.5-0.1,0.8c0,0.3-0.1,0.7-0.2,1.1
		c-0.1,0.4-0.3,0.8-0.6,1.1c-0.3,0.3-0.6,0.4-1,0.4h-7.6c-0.1,0-0.2,0.1-0.2,0.4v26.4c0,0.3,0.1,0.4,0.2,0.4h10.7
		C172.9,67.3,173.5,68.4,173.5,70.6z"/>
	<path d="M203.2,60.2c0,1.8-0.2,3.5-0.5,4.9c-0.3,1.5-0.7,2.7-1.1,3.6c-0.5,0.9-1.1,1.8-1.9,2.4c-0.8,0.7-1.5,1.2-2.2,1.6
		c-0.7,0.4-1.6,0.6-2.7,0.9c-1.1,0.2-2,0.3-2.8,0.4c-0.8,0-1.8,0.1-2.9,0.1c-2.1,0-4.2-0.8-6.3-2.3c-2.1-1.5-3.6-3.8-4.5-6.9
		c0-0.6-0.1-1.6-0.2-3.1c-0.1-1.4-0.2-2.1-0.2-2.2s0-0.2,0-0.4c0-0.8,0-1.4,0-1.7s0-0.8,0.1-1.3c0-0.5,0.1-0.8,0.1-1
		c0-0.1,0.1-0.3,0.3-0.6c0.2-0.2,0.3-0.4,0.4-0.4c0.1,0,0.3-0.1,0.7-0.2c0.3-0.1,0.6-0.1,0.9-0.1c0.2,0,0.6,0,1.2,0h0.5
		c1.4,0,2.4,0.1,3,0.3c0.4,0.8,0.7,1.4,0.9,1.8c0.1,1,0.2,1.9,0.2,2.4c0.1,0.6,0.2,1.3,0.3,2.3c0.2,0.9,0.3,1.7,0.5,2.2
		c0.2,0.5,0.5,1.1,0.8,1.7c0.3,0.6,0.7,1,1.2,1.3c0.5,0.3,1,0.4,1.6,0.4c1.3,0,2.3-0.5,2.9-1.5c0.7-1,1-2.3,1-3.9
		c0-0.9-0.2-2-0.6-3.3c-0.4-1.3-1.2-3.2-2.3-5.6c-1.1-2.4-2-4.1-2.5-5.2c-0.6-1.1-1.6-3.3-3.3-6.5c-3.3-6.4-5.5-11.2-6.7-14.3
		c-0.3-1.1-0.7-2.6-1-4.5c-0.3-1.9-0.5-3.6-0.5-5.2c0-1.9,0.2-3.6,0.6-5.1c0.4-1.5,0.9-2.7,1.6-3.7c0.7-1,1.4-1.8,2.3-2.5
		c0.8-0.7,1.8-1.2,2.9-1.6c1.1-0.4,2.1-0.6,3.1-0.8c1-0.2,2-0.2,3.1-0.2c3.8,0,6.7,1,8.7,3c2,2,3,5.5,3,10.6c0,2.4-0.2,3.9-0.6,4.5
		c-0.4,0.6-1.3,0.9-2.6,0.8h-1.5c-0.5,0-0.8,0-1,0c-0.2,0-0.5-0.1-0.9-0.2c-0.4-0.1-0.8-0.3-1-0.5c-0.3-0.3-0.5-0.6-0.7-1.1
		c-0.6-6.5-1.9-9.7-4.2-9.7c-0.9,0-1.8,0.5-2.7,1.4c-0.9,0.9-1.4,2-1.4,3.4c0,3.3,1.8,8.2,5.4,14.8c0.8,1.8,1.5,3.3,2.1,4.4
		c0.9,2,1.9,4.2,3,6.5c0.9,1.9,1.9,3.9,3,6.2c1.1,2.2,1.7,3.9,2,4.8h-0.1C202.8,53.5,203.2,56.6,203.2,60.2z"/>
	<path d="M230,5.4c0,2.3-0.6,3.4-1.8,3.4H223c-0.2,0-0.3,0.1-0.3,0.4v62.7c0,0.6-0.2,1-0.5,1.3c-0.3,0.3-0.7,0.5-1.2,0.6
		c-0.5,0.1-0.9,0.1-1.4,0.2c-0.5,0-0.9,0-1.3,0c-0.1,0.1-0.4,0.1-0.9,0c-0.4,0-0.9-0.1-1.4-0.2c-0.5-0.1-0.9-0.3-1.3-0.6
		c-0.4-0.4-0.5-0.9-0.5-1.5V9.3l-0.1-0.5h-5.5c-0.4,0-0.8-0.2-1.1-0.5c-0.3-0.3-0.5-0.7-0.6-1.2C207.1,6.6,207,6.2,207,6
		c0-0.2,0-0.4,0-0.6c0-2.2,0.7-3.2,2.1-3.2h18.9C229.3,2.1,230,3.2,230,5.4z"/>
	<path d="M255.4,70.6c0,2.3-0.6,3.4-1.9,3.4h-17.5c-0.3,0-0.7-0.3-1.3-0.9c-0.5-0.6-0.8-1-0.8-1.4V4.5c0-0.4,0.3-0.9,0.9-1.4
		c0.6-0.6,1.1-0.8,1.5-0.8h16.7c1.5,0,2.3,1.2,2.3,3.5c0,2.3-0.6,3.5-1.9,3.5h-10.7c-0.1,0-0.2,0.1-0.2,0.4v23.2
		c0,0.3,0.1,0.4,0.2,0.4h7.6c0.6,0,1,0.3,1.3,0.8c0.3,0.6,0.5,1.1,0.6,1.7l0,0.8c0,0.2,0,0.5-0.1,0.8c0,0.3-0.1,0.7-0.2,1.1
		c-0.1,0.4-0.3,0.8-0.6,1.1c-0.3,0.3-0.6,0.4-1,0.4h-7.6c-0.1,0-0.2,0.1-0.2,0.4v26.4c0,0.3,0.1,0.4,0.2,0.4h10.7
		C254.8,67.3,255.4,68.4,255.4,70.6z"/>
	<path d="M284.4,30.3c-0.1,1.2-0.6,2.5-1.4,3.9c-0.8,1.5-1.9,2.3-3.1,2.6c0,0,0,0,0.2,0.1c0.6,0.4,1.1,0.8,1.4,1.1
		c1.3,1.3,2,3.5,2.1,6.6v24.7c0-0.1,0,0,0,0.1c0,0.1,0.1,0.2,0.1,0.4c0,0.2,0.1,0.4,0.2,0.6c0.1,0.2,0.1,0.4,0.1,0.5l0.3,0.9
		c-0.2,0.5-0.3,0.9-0.3,1.3c-1,0.5-2.3,0.8-3.8,0.8H280c-0.4,0-0.8,0-1.2,0c-0.4,0-0.9-0.1-1.3-0.2c-0.4-0.1-0.8-0.3-1.2-0.6
		c-0.3-0.2-0.6-0.6-0.9-1.2c-0.2-0.5-0.3-1.2-0.3-2V50c0-0.3-0.1-0.8-0.2-1.5c-0.2-2.5-0.7-4.1-1.5-5c-0.8-0.8-1.9-1.3-3.4-1.3
		c-1.1,0-1.6,0.1-1.6,0.4v29.2c0,0.6-0.2,1-0.5,1.4c-0.3,0.3-0.7,0.6-1.2,0.6c-0.5,0.1-0.9,0.1-1.4,0.2c-0.5,0-0.8,0-1.1,0
		c-0.2,0.1-0.5,0.1-1,0c-0.5,0-0.9-0.1-1.4-0.2c-0.5-0.1-0.9-0.3-1.2-0.7s-0.5-0.8-0.5-1.4V4.3c0-0.3,0.2-0.7,0.6-1.2
		c0.4-0.5,0.7-0.8,1-0.9h8.4c1.8,0,3,0,3.8,0c0.7,0,1.7,0.1,3.1,0.4c1.3,0.2,2.5,0.6,3.5,1.1c1.2,0.8,2.2,1.9,2.8,3.6
		c0.6,1.6,1,3.2,1.1,4.7V30.3z M276,19.3c0-1,0-1.7,0-2.2c0-0.4,0-1.1-0.1-2c-0.1-0.9-0.2-1.5-0.3-1.9c-0.1-0.4-0.3-0.9-0.6-1.5
		c-0.3-0.6-0.6-1-1-1.3c-0.4-0.3-0.9-0.5-1.5-0.7c-0.6-0.2-1.3-0.3-2.1-0.3c-1.4,0-2.1,0.2-2.1,0.5V34c0,0.4,0.3,0.6,1,0.6
		c0.9,0,1.7-0.1,2.4-0.4c0.7-0.3,1.3-0.6,1.7-0.9c0.5-0.3,0.8-0.9,1.2-1.6c0.3-0.7,0.6-1.4,0.7-1.9c0.2-0.6,0.3-1.4,0.3-2.5
		c0.1-1.1,0.1-2,0.1-2.6c0-0.6,0-1.6,0-2.9V19.3z"/>
	<path d="M288.4,4.4V3.7c0.5-1.1,1.1-2,1.6-2.5c0.6-0.6,1-0.9,1.4-1c0.4-0.1,0.9-0.2,1.5-0.2c1.5,0,2.7,0.5,3.4,1.6
		c0.7,1.1,1.1,2.5,1.1,4.3c0,0.2,0,0.4,0,0.6c0,0.2,0,0.4,0,0.4v1.3c0,1.5-0.1,2.9-0.4,4.1c-0.6,2.1-2.2,4-4.5,5.6
		c-1-0.4-1.9-1.1-2.8-2.2c1.1-3.1,1.6-5.1,1.6-5.9c0-0.6-0.1-1.1-0.4-1.4c-0.1-0.1-0.1-0.2-0.2-0.4c-0.1-0.2-0.2-0.3-0.3-0.5
		C289.6,6.6,289,5.6,288.4,4.4z"/>
	<path d="M324.5,60.2c0,1.8-0.2,3.5-0.5,4.9c-0.3,1.5-0.7,2.7-1.1,3.6c-0.5,0.9-1.1,1.8-1.9,2.4c-0.8,0.7-1.5,1.2-2.2,1.6
		c-0.7,0.4-1.6,0.6-2.7,0.9c-1.1,0.2-2,0.3-2.8,0.4c-0.8,0-1.8,0.1-2.9,0.1c-2.1,0-4.2-0.8-6.3-2.3c-2.1-1.5-3.6-3.8-4.5-6.9
		c0-0.6-0.1-1.6-0.2-3.1c-0.1-1.4-0.2-2.1-0.2-2.2s0-0.2,0-0.4c0-0.8,0-1.4,0-1.7s0-0.8,0.1-1.3c0-0.5,0.1-0.8,0.1-1
		c0-0.1,0.1-0.3,0.3-0.6c0.2-0.2,0.3-0.4,0.4-0.4c0.1,0,0.3-0.1,0.7-0.2c0.3-0.1,0.6-0.1,0.9-0.1c0.2,0,0.6,0,1.2,0h0.5
		c1.4,0,2.4,0.1,3,0.3c0.4,0.8,0.7,1.4,0.9,1.8c0.1,1,0.2,1.9,0.2,2.4c0.1,0.6,0.2,1.3,0.3,2.3c0.2,0.9,0.3,1.7,0.5,2.2
		c0.2,0.5,0.5,1.1,0.8,1.7c0.3,0.6,0.7,1,1.2,1.3c0.5,0.3,1,0.4,1.6,0.4c1.3,0,2.3-0.5,2.9-1.5c0.7-1,1-2.3,1-3.9
		c0-0.9-0.2-2-0.6-3.3c-0.4-1.3-1.2-3.2-2.3-5.6c-1.1-2.4-2-4.1-2.5-5.2c-0.6-1.1-1.6-3.3-3.3-6.5c-3.3-6.4-5.5-11.2-6.7-14.3
		c-0.3-1.1-0.7-2.6-1-4.5c-0.3-1.9-0.5-3.6-0.5-5.2c0-1.9,0.2-3.6,0.6-5.1c0.4-1.5,0.9-2.7,1.6-3.7c0.7-1,1.4-1.8,2.3-2.5
		c0.8-0.7,1.8-1.2,2.9-1.6c1.1-0.4,2.1-0.6,3.1-0.8c1-0.2,2-0.2,3.1-0.2c3.8,0,6.7,1,8.7,3c2,2,3,5.5,3,10.6c0,2.4-0.2,3.9-0.6,4.5
		c-0.4,0.6-1.3,0.9-2.6,0.8h-1.5c-0.5,0-0.8,0-1,0c-0.2,0-0.5-0.1-0.9-0.2c-0.4-0.1-0.8-0.3-1-0.5c-0.3-0.3-0.5-0.6-0.7-1.1
		c-0.6-6.5-1.9-9.7-4.2-9.7c-0.9,0-1.8,0.5-2.7,1.4c-0.9,0.9-1.4,2-1.4,3.4c0,3.3,1.8,8.2,5.4,14.8c0.8,1.8,1.5,3.3,2.1,4.4
		c0.9,2,1.9,4.2,3,6.5c0.9,1.9,1.9,3.9,3,6.2c1.1,2.2,1.7,3.9,2,4.8h-0.1C324.1,53.5,324.5,56.6,324.5,60.2z"/>
	<path d="M372.7,3.5c0,1.3-0.1,1.9-0.3,1.9H361c-0.3,0-0.7,0.3-1.2,0.9c-0.5,0.6-0.7,1.1-0.7,1.4v24.6c0,0.4,0.2,0.8,0.7,1.4
		c0.5,0.6,0.9,0.8,1.2,0.8h8.2l0.3,1.7c0,1.1-0.1,1.7-0.3,1.7H361c-0.3,0-0.7,0.3-1.2,0.9c-0.5,0.6-0.7,1.1-0.7,1.4v33.3
		c0,0.3-0.8,0.4-2.5,0.4c-1.8,0-2.8-0.2-2.8-0.5V2.2c0-0.1,0.1-0.2,0.2-0.3c0.1-0.1,0.2-0.2,0.4-0.2h17.7
		C372.5,1.7,372.7,2.3,372.7,3.5z"/>
	<path d="M387,73.6c0,0.3-0.8,0.4-2.4,0.4c-1.8,0-2.8-0.2-2.8-0.5V2.2c0-0.4,0.8-0.5,2.4-0.5c1.8,0,2.8,0.2,2.8,0.5V73.6z"/>
	<path d="M416.7,73.6c0,0.3-0.8,0.4-2.5,0.4h-0.7c-0.7,0-1.3-0.2-1.7-0.5c-0.4-0.4-0.7-1.1-1-2.3c-1-5.3-2.8-14-5.5-26
		c-0.2-0.7-0.5-2-0.9-3.8c-0.4-1.8-0.7-3-0.9-3.8h-1.7l-1,1.1v34.9c0,0.3-0.8,0.4-2.3,0.4c-1.8,0-2.8-0.2-2.8-0.5V2.1
		c0-0.5,0.8-0.7,2.3-0.4h0.9c0.5,0,0.9,0,1.2,0.1c0.2,0.1,0.5,0.3,0.8,0.7c0.3,0.4,0.5,1,0.7,1.8c0.7,3.3,2.5,11.8,5.5,25.4
		c0.2,0.9,0.5,2.3,1,4.2c0.5,1.9,0.8,3.2,0.9,3.8h2.4l0.2-1.3V2.1c0-0.6,0.8-0.7,2.4-0.4c1.8,0,2.8,0.1,2.8,0.4V73.6z"/>
	<path d="M442,72.2c0,1.2,0,1.8-0.1,1.8h-18.5c-0.2,0-0.3-0.2-0.3-0.5V2.2c0-0.1,0.1-0.2,0.2-0.3c0.1-0.1,0.3-0.2,0.4-0.2h17.8
		c0.3,0,0.4,0.6,0.4,1.8c0,1.3,0,1.9-0.1,1.9h-11.4c-0.3,0-0.7,0.3-1.2,0.9c-0.5,0.6-0.8,1.1-0.8,1.4v24.6c0,0.4,0.2,0.8,0.7,1.4
		c0.5,0.6,0.9,0.8,1.3,0.8h8.1l0.2,1.7c0,1.1-0.1,1.7-0.2,1.7h-8.1c-0.3,0-0.7,0.3-1.2,0.9c-0.5,0.6-0.8,1.1-0.8,1.4v28.1
		c0,0.5,0.2,1,0.7,1.5c0.4,0.5,0.9,0.8,1.3,0.8h11.4C441.9,70.6,442,71.2,442,72.2z"/>
	<path d="M472.4,61.2c0,2.9-0.4,5.3-1.1,7.1c-0.7,1.8-1.8,3.1-3.2,3.9c-1.4,0.8-2.8,1.3-4,1.5c-1.2,0.2-2.8,0.3-4.8,0.3
		c-1.7,0-3.5-0.7-5.5-2.2c-1.9-1.5-3.3-3.6-4.2-6.3c0-0.7-0.1-1.7-0.2-2.9l-0.2-2.1c0-2.1,0.1-3.3,0.2-3.6c0.1-0.3,0.8-0.5,1.8-0.5
		h0.5c1.2,0,1.9,0,2.1,0.1c0.1,0.2,0.2,0.4,0.3,0.6c0.2,1.9,0.4,3.4,0.5,4.5c0.2,1.1,0.5,2.3,1,3.8c0.5,1.4,1.2,2.5,2.1,3.2
		c0.9,0.7,2,1,3.3,1c2,0,3.5-0.7,4.5-2.1c1-1.4,1.5-3.3,1.5-5.6c0-2.7-3.1-10.3-9.4-22.7c-3.3-6.4-5.7-11.4-7.1-14.9l0.1,0.1
		c-1-3.5-1.5-6.7-1.5-9.7c0-8.6,4.2-13,12.5-13c3.5,0,6.1,0.9,7.9,2.8c1.8,1.9,2.7,5.1,2.7,9.7c0,1.8-0.1,2.9-0.3,3.3
		c-0.2,0.4-0.6,0.5-1.3,0.4h-1.5c-1.3,0-2-0.1-2.1-0.4c-0.5-7.9-2.6-11.8-6.3-11.8c-1.4,0-2.8,0.7-4.2,2s-2,3-2,4.9
		c0,1.7,0.4,3.7,1.1,5.9c0.7,2.2,1.4,3.9,1.9,5.1c0.6,1.2,1.5,3.1,2.8,5.7c1.1,2.3,1.9,3.7,2.2,4.4c0.8,1.8,1.8,4.1,3.2,6.8
		c2.9,6,4.6,9.8,5.1,11.5C471.9,54.6,472.4,57.7,472.4,61.2z"/>
	<path d="M499.2,3.1c0,1.2,0,1.8-0.1,1.8h-5.5c-0.4,0-0.8,0.3-1.3,0.8c-0.5,0.6-0.8,1.1-0.8,1.5v66.3c0,0.3-0.8,0.4-2.5,0.4
		c-1.8,0-2.7-0.2-2.7-0.5V7.3c0-0.5-0.2-1-0.7-1.6c-0.5-0.6-0.9-0.8-1.2-0.8h-5.8c-0.1,0-0.2-0.6-0.2-1.8c0-1,0.1-1.5,0.4-1.5h19.9
		C499,1.6,499.2,2.1,499.2,3.1z"/>
</g>
</svg>
